<svg width="30.000000" height="30.000000" viewBox="0 0 30 30" fill="none" xmlns="http://www.w3.org/2000/svg" xmlns:xlink="http://www.w3.org/1999/xlink">
	<desc>
			Created with Pixso.
	</desc>
	<defs>
		<clipPath id="clip2_92">
			<rect id="email" width="30.000000" height="30.000000" fill="white" fill-opacity="0"/>
		</clipPath>
	</defs>
	<rect id="email" width="30.000000" height="30.000000" fill="#FFFFFF" fill-opacity="0"/>
	<g clip-path="url(#clip2_92)">
		<path id="Vector" d="M26.4844 1.98438L3.51562 1.98438C1.57711 1.98438 0 3.56152 0 5.5L0 20.5C0 22.4385 1.57711 24.0156 3.51562 24.0156L26.4844 24.0156C28.4229 24.0156 30 22.4385 30 20.5L30 5.5C30 3.56152 28.4229 1.98438 26.4844 1.98438ZM27.6562 20.5C27.6562 21.1462 27.1305 21.6719 26.4844 21.6719L3.51562 21.6719C2.86945 21.6719 2.34375 21.1462 2.34375 20.5L2.34375 5.5C2.34375 4.85376 2.86945 4.32812 3.51562 4.32812L26.4844 4.32812C27.1305 4.32812 27.6562 4.85376 27.6562 5.5L27.6562 20.5Z" fill="#232323" fill-opacity="1.000000" fill-rule="nonzero"/>
		<path id="Vector" d="M27.4573 5.44531L15.0001 14.7112L2.54279 5.44531L1.14392 7.32593L15.0001 17.6321L28.8562 7.32593L27.4573 5.44531Z" fill="#232323" fill-opacity="1.000000" fill-rule="nonzero"/>
	</g>
</svg>
