<svg width="30.000000" height="30.000000" viewBox="0 0 30 30" fill="none" xmlns="http://www.w3.org/2000/svg" xmlns:xlink="http://www.w3.org/1999/xlink">
	<desc>
			Created with Pixso.
	</desc>
	<defs>
		<clipPath id="clip2_88">
			<rect id="instagram" width="30.000000" height="30.000000" fill="white" fill-opacity="0"/>
		</clipPath>
	</defs>
	<rect id="instagram" width="30.000000" height="30.000000" fill="#FFFFFF" fill-opacity="0"/>
	<g clip-path="url(#clip2_88)">
		<path id="Vector" d="M15.0048 7.29736C10.7511 7.29736 7.30731 10.7449 7.30731 14.9949C7.30731 19.2485 10.7548 22.6924 15.0048 22.6924C19.2586 22.6924 22.7023 19.2449 22.7023 14.9949C22.7023 10.7412 19.2548 7.29736 15.0048 7.29736ZM15.0048 19.9912C12.2436 19.9912 10.0086 17.7549 10.0086 14.9949C10.0086 12.2349 12.2448 9.99854 15.0048 9.99854C17.7648 9.99854 20.0011 12.2349 20.0011 14.9949C20.0023 17.7549 17.7661 19.9912 15.0048 19.9912Z" fill="#232323" fill-opacity="1.000000" fill-rule="nonzero"/>
		<path id="Vector" d="M21.185 0.0952148C18.425 -0.0334473 11.5888 -0.0273438 8.82629 0.0952148C6.39879 0.208984 4.25754 0.795166 2.53129 2.52148C-0.353714 5.40649 0.0150375 9.29395 0.0150375 14.9951C0.0150375 20.8301 -0.309959 24.6277 2.53129 27.469C5.42754 30.364 9.37129 29.9851 15.005 29.9851C20.785 29.9851 22.78 29.989 24.8238 29.1978C27.6025 28.1189 29.7 25.6353 29.905 21.1738C30.035 18.4126 30.0275 11.5776 29.905 8.81519C29.6575 3.54907 26.8313 0.355225 21.185 0.0952148ZM25.5538 25.5603C23.6625 27.4514 21.0388 27.2827 14.9688 27.2827C8.71879 27.2827 6.21254 27.3752 4.38379 25.5415C2.27754 23.4451 2.65879 20.0789 2.65879 14.9751C2.65879 8.06885 1.95004 3.09521 8.88129 2.74023C10.4738 2.68384 10.9425 2.66528 14.9513 2.66528L15.0075 2.70264C21.6688 2.70264 26.895 2.00513 27.2088 8.9353C27.28 10.5164 27.2963 10.9915 27.2963 14.9939C27.295 21.1714 27.4125 23.6926 25.5538 25.5603Z" fill="#232323" fill-opacity="1.000000" fill-rule="nonzero"/>
		<path id="Vector" d="M24.806 6.99365C24.806 7.98706 24.0007 8.79224 23.0072 8.79224C22.0138 8.79224 21.2085 7.98706 21.2085 6.99365C21.2085 6.00024 22.0138 5.19482 23.0072 5.19482C24.0007 5.19482 24.806 6.00024 24.806 6.99365Z" fill="#232323" fill-opacity="1.000000" fill-rule="evenodd"/>
	</g>
</svg>
